<svg xmlns="http://www.w3.org/2000/svg" fill="none" viewBox="8.630291970802919 0 186.62773722627736 184.9088" style="max-height: 500px" width="186.62773722627736" height="184.9088">
<circle fill="url(#paint0_radial_59655_37004)" r="90.6574" cy="90.6574" cx="102"/>
<circle fill="url(#paint1_radial_59655_37004)" r="90.6574" cy="90.6574" cx="102"/>
<circle fill="url(#paint2_radial_59655_37004)" r="89.5" cy="90.5" cx="101.843"/>
<circle fill="url(#paint3_radial_59655_37004)" r="86.5" cy="90.5" cx="101.843"/>
<circle fill="url(#paint4_radial_59655_37004)" r="84.5" cy="90.5" cx="101.843"/>
<circle fill="url(#paint5_radial_59655_37004)" r="84.5" cy="90.5" cx="101.843"/>
<circle fill="url(#paint6_radial_59655_37004)" r="81.5" cy="90.5" cx="101.843"/>
<circle fill="url(#paint7_radial_59655_37004)" r="78.5" cy="90.5" cx="101.843"/>
<circle fill="url(#paint8_radial_59655_37004)" r="78.5" cy="90.5" cx="101.843"/>
<circle fill="url(#paint9_radial_59655_37004)" r="76" cy="90" cx="102.343"/>
<circle fill="url(#paint10_radial_59655_37004)" r="76" cy="90" cx="102.343"/>
<circle fill="url(#paint11_radial_59655_37004)" r="76" cy="90" cx="102.343"/>
<circle fill="url(#paint12_radial_59655_37004)" r="76" cy="90" cx="102.343"/>
<circle fill="url(#paint13_radial_59655_37004)" r="76" cy="90" cx="102.343"/>
<circle fill="url(#paint14_radial_59655_37004)" r="76" cy="90" cx="102.343"/>
<circle fill="url(#paint15_radial_59655_37004)" r="76" cy="90" cx="102.343"/>
<circle fill="url(#paint16_radial_59655_37004)" r="76" cy="90" cx="102.343"/>
<circle fill="url(#paint17_radial_59655_37004)" r="76" cy="90" cx="102.343"/>
<circle fill="url(#paint18_radial_59655_37004)" r="76" cy="90" cx="102.343"/>
<circle fill="url(#paint19_radial_59655_37004)" r="76" cy="90" cx="102.343"/>
<circle fill="url(#paint20_radial_59655_37004)" r="76" cy="90" cx="102.343"/>
<circle fill="url(#paint21_radial_59655_37004)" r="76" cy="90" cx="102.343"/>
<circle fill="url(#paint22_radial_59655_37004)" r="76" cy="90" cx="102.343"/>
<circle fill="url(#paint23_radial_59655_37004)" r="76" cy="90" cx="102.343"/>
<circle fill="url(#paint24_radial_59655_37004)" r="76" cy="90" cx="102.343"/>
<circle fill="url(#paint25_radial_59655_37004)" r="76" cy="90" cx="102.343"/>
<circle fill="url(#paint26_radial_59655_37004)" r="76" cy="90" cx="102.343"/>
<circle fill="url(#paint27_radial_59655_37004)" r="76" cy="90" cx="102.343"/>
<circle fill="url(#paint28_radial_59655_37004)" r="76" cy="90" cx="102.343"/>
<circle fill="url(#paint29_radial_59655_37004)" r="76" cy="90" cx="102.343"/>
<circle fill="url(#paint30_radial_59655_37004)" r="76" cy="90" cx="102.343"/>
<circle fill="url(#paint31_radial_59655_37004)" r="76" cy="90" cx="102.343"/>
<circle fill="url(#paint32_radial_59655_37004)" r="76" cy="90" cx="102.343"/>
<circle stroke-dasharray="2 2" stroke-linejoin="round" stroke-linecap="round" stroke="#C8DFFF" fill="url(#paint33_radial_59655_37004)" r="71" cy="90.8147" cx="101.843"/>
<path fill="url(#paint34_linear_59655_37004)" d="M104.418 43.3134C103.067 42.8784 101.613 42.8784 100.261 43.3134C99.2226 43.6475 98.1191 43.7264 97.0438 43.5435C95.6439 43.3053 94.2046 43.5123 92.9285 44.1352C91.9484 44.6137 90.8673 44.8488 89.7769 44.8208C88.3574 44.7842 86.9622 45.1939 85.7878 45.9921C84.8857 46.6052 83.8491 46.9918 82.7658 47.1192C81.3556 47.2851 80.0328 47.8892 78.984 48.8463C78.1783 49.5816 77.2073 50.1118 76.1532 50.3921C74.7809 50.7569 73.5576 51.5431 72.6556 52.6398C71.9628 53.4822 71.0771 54.1452 70.0736 54.5727C68.7672 55.1291 67.6683 56.0814 66.9315 57.2953C66.3656 58.2277 65.5833 59.01 64.6509 59.5759C63.437 60.3127 62.4847 61.4116 61.9283 62.718C61.5008 63.7215 60.8378 64.6072 59.9954 65.3C58.8987 66.202 58.1125 67.4253 57.7477 68.7976C57.4674 69.8517 56.9372 70.8227 56.2019 71.6284C55.2447 72.6772 54.6407 74 54.4748 75.4102C54.3474 76.4935 53.9608 77.5301 53.3477 78.4322C52.5495 79.6066 52.1398 81.0018 52.1764 82.4214C52.2044 83.5117 51.9692 84.5928 51.4908 85.5729C50.8679 86.849 50.6609 88.2883 50.8991 89.6882C51.082 90.7635 51.0031 91.867 50.669 92.9053C50.234 94.257 50.234 95.7111 50.669 97.0629C51.0031 98.1011 51.082 99.2047 50.8991 100.28C50.6609 101.68 50.8679 103.119 51.4908 104.395C51.9692 105.375 52.2044 106.456 52.1764 107.547C52.1398 108.966 52.5495 110.362 53.3477 111.536C53.9608 112.438 54.3474 113.475 54.4748 114.558C54.6407 115.968 55.2447 117.291 56.2019 118.34C56.9372 119.145 57.4674 120.116 57.7477 121.171C58.1125 122.543 58.8987 123.766 59.9954 124.668C60.8378 125.361 61.5008 126.247 61.9283 127.25C62.4847 128.557 63.437 129.655 64.6509 130.392C65.5833 130.958 66.3656 131.74 66.9315 132.673C67.6682 133.887 68.7672 134.839 70.0736 135.395C71.0771 135.823 71.9628 136.486 72.6556 137.328C73.5576 138.425 74.7809 139.211 76.1532 139.576C77.2073 139.856 78.1783 140.387 78.9839 141.122C80.0328 142.079 81.3556 142.683 82.7658 142.849L82.8117 142.854C83.8662 142.978 84.9352 142.858 85.936 142.504L86.4383 142.326C88.4398 141.616 89.958 140.132 90.7607 138.321C91.4619 137.193 91.7892 135.892 91.7892 134.695V129.884C91.7892 125.688 88.3862 122.267 84.1725 122.267L81.7495 122.294C73.9725 122.294 67.7366 115.747 68.2444 107.854C68.7165 100.665 75.0148 95.2216 82.2127 95.2216H121.445C128.652 95.2216 134.95 100.656 135.413 107.854C135.93 115.747 129.685 122.294 121.917 122.294L119.485 122.267C115.289 122.267 111.869 125.67 111.869 129.884V134.617C111.648 136.711 112.286 138.865 113.756 140.506C115.201 142.12 117.265 143.043 119.432 143.043H120.265L121.913 142.849C123.324 142.683 124.646 142.079 125.695 141.122C126.501 140.387 127.472 139.856 128.526 139.576C129.898 139.211 131.122 138.425 132.024 137.328C132.717 136.486 133.602 135.823 134.606 135.395C135.912 134.839 137.011 133.887 137.748 132.673C138.314 131.74 139.096 130.958 140.028 130.392C141.242 129.655 142.195 128.557 142.751 127.25C143.178 126.247 143.841 125.361 144.684 124.668C145.781 123.766 146.567 122.543 146.932 121.171C147.212 120.116 147.742 119.145 148.477 118.34C149.435 117.291 150.039 115.968 150.205 114.558C150.332 113.475 150.719 112.438 151.332 111.536C152.13 110.362 152.539 108.966 152.503 107.547C152.475 106.456 152.71 105.375 153.189 104.395C153.811 103.119 154.018 101.68 153.78 100.28C153.597 99.2047 153.676 98.1011 154.01 97.0629C154.445 95.7111 154.445 94.257 154.01 92.9053C153.676 91.867 153.597 90.7635 153.78 89.6882C154.018 88.2883 153.811 86.849 153.189 85.5729C152.71 84.5928 152.475 83.5117 152.503 82.4214C152.539 81.0018 152.13 79.6066 151.332 78.4322C150.719 77.5301 150.332 76.4935 150.205 75.4102C150.039 74 149.435 72.6772 148.477 71.6284C147.742 70.8227 147.212 69.8517 146.932 68.7976C146.567 67.4253 145.781 66.202 144.684 65.3C143.841 64.6072 143.178 63.7215 142.751 62.718C142.195 61.4116 141.242 60.3127 140.028 59.5759C139.096 59.01 138.314 58.2277 137.748 57.2953C137.011 56.0814 135.912 55.1291 134.606 54.5727C133.602 54.1452 132.717 53.4822 132.024 52.6398C131.122 51.5431 129.898 50.7569 128.526 50.3921C127.472 50.1118 126.501 49.5816 125.695 48.8463C124.646 47.8892 123.324 47.2851 121.913 47.1192C120.83 46.9918 119.794 46.6052 118.892 45.9921C117.717 45.1939 116.322 44.7842 114.902 44.8208C113.812 44.8488 112.731 44.6137 111.751 44.1352C110.475 43.5123 109.035 43.3053 107.636 43.5435C106.56 43.7264 105.457 43.6475 104.418 43.3134Z"/>
<path fill="url(#paint35_linear_59655_37004)" d="M121.785 100.935H81.7106C76.7751 100.935 72.774 104.699 72.774 109.351C72.774 113.994 76.7751 117.758 81.7106 117.758H121.785C126.72 117.758 130.721 113.994 130.721 109.351C130.721 104.699 126.72 100.935 121.785 100.935ZM83.87 114.66C80.7489 114.66 78.2177 112.287 78.2177 109.333C78.2177 106.389 80.7489 104.024 83.87 104.024C86.991 104.024 89.5132 106.397 89.5132 109.333C89.5132 112.27 86.991 114.66 83.87 114.66ZM118.591 114.66C115.47 114.66 112.948 112.287 112.948 109.333C112.948 106.389 115.47 104.024 118.591 104.024C121.712 104.024 124.253 106.397 124.253 109.333C124.253 112.27 121.73 114.66 118.591 114.66Z"/>
<path fill="white" d="M22.4527 217.925H9.35766L7.10766 224.315H1.75266L12.9577 192.995H18.8977L30.1027 224.315H24.7027L22.4527 217.925ZM21.0127 213.74L15.9277 199.205L10.7977 213.74H21.0127ZM45.3696 203.705H40.7796V224.315H35.6046V203.705H32.6796V199.52H35.6046V197.765C35.6046 194.915 36.3546 192.845 37.8546 191.555C39.3846 190.235 41.7696 189.575 45.0096 189.575V193.85C43.4496 193.85 42.3546 194.15 41.7246 194.75C41.0946 195.32 40.7796 196.325 40.7796 197.765V199.52H45.3696V203.705ZM55.046 203.12C55.796 201.86 56.786 200.885 58.016 200.195C59.276 199.475 60.761 199.115 62.471 199.115V204.425H61.166C59.156 204.425 57.626 204.935 56.576 205.955C55.556 206.975 55.046 208.745 55.046 211.265V224.315H49.916V199.52H55.046V203.12ZM77.9415 224.72C75.6015 224.72 73.4865 224.195 71.5965 223.145C69.7065 222.065 68.2215 220.565 67.1415 218.645C66.0615 216.695 65.5215 214.445 65.5215 211.895C65.5215 209.375 66.0765 207.14 67.1865 205.19C68.2965 203.24 69.8115 201.74 71.7315 200.69C73.6515 199.64 75.7965 199.115 78.1665 199.115C80.5365 199.115 82.6815 199.64 84.6015 200.69C86.5215 201.74 88.0365 203.24 89.1465 205.19C90.2565 207.14 90.8115 209.375 90.8115 211.895C90.8115 214.415 90.2415 216.65 89.1015 218.6C87.9615 220.55 86.4015 222.065 84.4215 223.145C82.4715 224.195 80.3115 224.72 77.9415 224.72ZM77.9415 220.265C79.2615 220.265 80.4915 219.95 81.6315 219.32C82.8015 218.69 83.7465 217.745 84.4665 216.485C85.1865 215.225 85.5465 213.695 85.5465 211.895C85.5465 210.095 85.2015 208.58 84.5115 207.35C83.8215 206.09 82.9065 205.145 81.7665 204.515C80.6265 203.885 79.3965 203.57 78.0765 203.57C76.7565 203.57 75.5265 203.885 74.3865 204.515C73.2765 205.145 72.3915 206.09 71.7315 207.35C71.0715 208.58 70.7415 210.095 70.7415 211.895C70.7415 214.565 71.4165 216.635 72.7665 218.105C74.1465 219.545 75.8715 220.265 77.9415 220.265ZM94.1728 208.61C94.1728 205.55 94.8778 202.805 96.2878 200.375C97.7278 197.945 99.6628 196.055 102.093 194.705C104.553 193.325 107.238 192.635 110.148 192.635C113.478 192.635 116.433 193.46 119.013 195.11C121.623 196.73 123.513 199.04 124.683 202.04H118.518C117.708 200.39 116.583 199.16 115.143 198.35C113.703 197.54 112.038 197.135 110.148 197.135C108.078 197.135 106.233 197.6 104.613 198.53C102.993 199.46 101.718 200.795 100.788 202.535C99.8878 204.275 99.4378 206.3 99.4378 208.61C99.4378 210.92 99.8878 212.945 100.788 214.685C101.718 216.425 102.993 217.775 104.613 218.735C106.233 219.665 108.078 220.13 110.148 220.13C112.038 220.13 113.703 219.725 115.143 218.915C116.583 218.105 117.708 216.875 118.518 215.225H124.683C123.513 218.225 121.623 220.535 119.013 222.155C116.433 223.775 113.478 224.585 110.148 224.585C107.208 224.585 104.523 223.91 102.093 222.56C99.6628 221.18 97.7278 219.275 96.2878 216.845C94.8778 214.415 94.1728 211.67 94.1728 208.61ZM143.513 199.115C145.403 199.115 147.083 199.52 148.553 200.33C150.053 201.14 151.223 202.34 152.063 203.93C152.933 205.52 153.368 207.44 153.368 209.69V224.315H148.283V210.455C148.283 208.235 147.728 206.54 146.618 205.37C145.508 204.17 143.993 203.57 142.073 203.57C140.153 203.57 138.623 204.17 137.483 205.37C136.373 206.54 135.818 208.235 135.818 210.455V224.315H130.688V191.015H135.818V202.4C136.688 201.35 137.783 200.54 139.103 199.97C140.453 199.4 141.923 199.115 143.513 199.115ZM158.201 211.805C158.201 209.315 158.711 207.11 159.731 205.19C160.781 203.27 162.191 201.785 163.961 200.735C165.761 199.655 167.741 199.115 169.901 199.115C171.851 199.115 173.546 199.505 174.986 200.285C176.456 201.035 177.626 201.98 178.496 203.12V199.52H183.671V224.315H178.496V220.625C177.626 221.795 176.441 222.77 174.941 223.55C173.441 224.33 171.731 224.72 169.811 224.72C167.681 224.72 165.731 224.18 163.961 223.1C162.191 221.99 160.781 220.46 159.731 218.51C158.711 216.53 158.201 214.295 158.201 211.805ZM178.496 211.895C178.496 210.185 178.136 208.7 177.416 207.44C176.726 206.18 175.811 205.22 174.671 204.56C173.531 203.9 172.301 203.57 170.981 203.57C169.661 203.57 168.431 203.9 167.291 204.56C166.151 205.19 165.221 206.135 164.501 207.395C163.811 208.625 163.466 210.095 163.466 211.805C163.466 213.515 163.811 215.015 164.501 216.305C165.221 217.595 166.151 218.585 167.291 219.275C168.461 219.935 169.691 220.265 170.981 220.265C172.301 220.265 173.531 219.935 174.671 219.275C175.811 218.615 176.726 217.655 177.416 216.395C178.136 215.105 178.496 213.605 178.496 211.895ZM196.394 203.705V217.43C196.394 218.36 196.604 219.035 197.024 219.455C197.474 219.845 198.224 220.04 199.274 220.04H202.424V224.315H198.374C196.064 224.315 194.294 223.775 193.064 222.695C191.834 221.615 191.219 219.86 191.219 217.43V203.705H188.294V199.52H191.219V193.355H196.394V199.52H202.424V203.705H196.394Z"/>
<path fill="#E2E2E6" d="M40.4709 239.375C40.2389 238.887 39.9029 238.511 39.4629 238.247C39.0229 237.975 38.5109 237.839 37.9269 237.839C37.3429 237.839 36.8149 237.975 36.3429 238.247C35.8789 238.511 35.5109 238.895 35.2389 239.399C34.9749 239.895 34.8429 240.471 34.8429 241.127C34.8429 241.783 34.9749 242.359 35.2389 242.855C35.5109 243.351 35.8789 243.735 36.3429 244.007C36.8149 244.271 37.3429 244.403 37.9269 244.403C38.7429 244.403 39.4149 244.159 39.9429 243.671C40.4709 243.183 40.7789 242.523 40.8669 241.691H37.5309V240.803H42.0309V241.643C41.9669 242.331 41.7509 242.963 41.3829 243.539C41.0149 244.107 40.5309 244.559 39.9309 244.895C39.3309 245.223 38.6629 245.387 37.9269 245.387C37.1509 245.387 36.4429 245.207 35.8029 244.847C35.1629 244.479 34.6549 243.971 34.2789 243.323C33.9109 242.675 33.7269 241.943 33.7269 241.127C33.7269 240.311 33.9109 239.579 34.2789 238.931C34.6549 238.275 35.1629 237.767 35.8029 237.407C36.4429 237.039 37.1509 236.855 37.9269 236.855C38.8149 236.855 39.5989 237.075 40.2789 237.515C40.9669 237.955 41.4669 238.575 41.7789 239.375H40.4709ZM49.4748 241.775C49.4748 241.983 49.4628 242.203 49.4388 242.435H44.1828C44.2228 243.083 44.4428 243.591 44.8428 243.959C45.2508 244.319 45.7428 244.499 46.3188 244.499C46.7908 244.499 47.1828 244.391 47.4948 244.175C47.8148 243.951 48.0388 243.655 48.1668 243.287H49.3428C49.1668 243.919 48.8148 244.435 48.2868 244.835C47.7588 245.227 47.1028 245.423 46.3188 245.423C45.6948 245.423 45.1348 245.283 44.6388 245.003C44.1508 244.723 43.7668 244.327 43.4868 243.815C43.2068 243.295 43.0668 242.695 43.0668 242.015C43.0668 241.335 43.2028 240.739 43.4748 240.227C43.7468 239.715 44.1268 239.323 44.6148 239.051C45.1108 238.771 45.6788 238.631 46.3188 238.631C46.9428 238.631 47.4948 238.767 47.9748 239.039C48.4548 239.311 48.8228 239.687 49.0788 240.167C49.3428 240.639 49.4748 241.175 49.4748 241.775ZM48.3468 241.547C48.3468 241.131 48.2548 240.775 48.0708 240.479C47.8868 240.175 47.6348 239.947 47.3148 239.795C47.0028 239.635 46.6548 239.555 46.2708 239.555C45.7188 239.555 45.2468 239.731 44.8548 240.083C44.4708 240.435 44.2508 240.923 44.1948 241.547H48.3468ZM54.1202 238.619C54.9202 238.619 55.5682 238.863 56.0642 239.351C56.5602 239.831 56.8082 240.527 56.8082 241.439V245.315H55.7282V241.595C55.7282 240.939 55.5642 240.439 55.2362 240.095C54.9082 239.743 54.4602 239.567 53.8922 239.567C53.3162 239.567 52.8562 239.747 52.5122 240.107C52.1762 240.467 52.0082 240.991 52.0082 241.679V245.315H50.9162V238.739H52.0082V239.675C52.2242 239.339 52.5162 239.079 52.8842 238.895C53.2602 238.711 53.6722 238.619 54.1202 238.619ZM64.592 241.775C64.592 241.983 64.58 242.203 64.556 242.435H59.3C59.34 243.083 59.56 243.591 59.96 243.959C60.368 244.319 60.86 244.499 61.436 244.499C61.908 244.499 62.3 244.391 62.612 244.175C62.932 243.951 63.156 243.655 63.284 243.287H64.46C64.284 243.919 63.932 244.435 63.404 244.835C62.876 245.227 62.22 245.423 61.436 245.423C60.812 245.423 60.252 245.283 59.756 245.003C59.268 244.723 58.884 244.327 58.604 243.815C58.324 243.295 58.184 242.695 58.184 242.015C58.184 241.335 58.32 240.739 58.592 240.227C58.864 239.715 59.244 239.323 59.732 239.051C60.228 238.771 60.796 238.631 61.436 238.631C62.06 238.631 62.612 238.767 63.092 239.039C63.572 239.311 63.94 239.687 64.196 240.167C64.46 240.639 64.592 241.175 64.592 241.775ZM63.464 241.547C63.464 241.131 63.372 240.775 63.188 240.479C63.004 240.175 62.752 239.947 62.432 239.795C62.12 239.635 61.772 239.555 61.388 239.555C60.836 239.555 60.364 239.731 59.972 240.083C59.588 240.435 59.368 240.923 59.312 241.547H63.464ZM67.1254 239.807C67.3174 239.431 67.5894 239.139 67.9414 238.931C68.3014 238.723 68.7374 238.619 69.2494 238.619V239.747H68.9614C67.7374 239.747 67.1254 240.411 67.1254 241.739V245.315H66.0334V238.739H67.1254V239.807ZM70.1019 242.003C70.1019 241.331 70.2379 240.743 70.5099 240.239C70.7819 239.727 71.1539 239.331 71.6259 239.051C72.1059 238.771 72.6379 238.631 73.2219 238.631C73.7979 238.631 74.2979 238.755 74.7219 239.003C75.1459 239.251 75.4619 239.563 75.6699 239.939V238.739H76.7739V245.315H75.6699V244.091C75.4539 244.475 75.1299 244.795 74.6979 245.051C74.2739 245.299 73.7779 245.423 73.2099 245.423C72.6259 245.423 72.0979 245.279 71.6259 244.991C71.1539 244.703 70.7819 244.299 70.5099 243.779C70.2379 243.259 70.1019 242.667 70.1019 242.003ZM75.6699 242.015C75.6699 241.519 75.5699 241.087 75.3699 240.719C75.1699 240.351 74.8979 240.071 74.5539 239.879C74.2179 239.679 73.8459 239.579 73.4379 239.579C73.0299 239.579 72.6579 239.675 72.3219 239.867C71.9859 240.059 71.7179 240.339 71.5179 240.707C71.3179 241.075 71.2179 241.507 71.2179 242.003C71.2179 242.507 71.3179 242.947 71.5179 243.323C71.7179 243.691 71.9859 243.975 72.3219 244.175C72.6579 244.367 73.0299 244.463 73.4379 244.463C73.8459 244.463 74.2179 244.367 74.5539 244.175C74.8979 243.975 75.1699 243.691 75.3699 243.323C75.5699 242.947 75.6699 242.511 75.6699 242.015ZM79.9513 239.639V243.515C79.9513 243.835 80.0193 244.063 80.1553 244.199C80.2913 244.327 80.5273 244.391 80.8633 244.391H81.6673V245.315H80.6833C80.0753 245.315 79.6193 245.175 79.3153 244.895C79.0113 244.615 78.8593 244.155 78.8593 243.515V239.639H78.0073V238.739H78.8593V237.083H79.9513V238.739H81.6673V239.639H79.9513ZM83.5544 237.671C83.3464 237.671 83.1704 237.599 83.0264 237.455C82.8824 237.311 82.8104 237.135 82.8104 236.927C82.8104 236.719 82.8824 236.543 83.0264 236.399C83.1704 236.255 83.3464 236.183 83.5544 236.183C83.7544 236.183 83.9224 236.255 84.0584 236.399C84.2024 236.543 84.2744 236.719 84.2744 236.927C84.2744 237.135 84.2024 237.311 84.0584 237.455C83.9224 237.599 83.7544 237.671 83.5544 237.671ZM84.0824 238.739V245.315H82.9904V238.739H84.0824ZM88.3915 244.307L90.4315 238.739H91.5955L89.0155 245.315H87.7435L85.1635 238.739H86.3395L88.3915 244.307ZM98.6701 241.775C98.6701 241.983 98.6581 242.203 98.6341 242.435H93.3781C93.4181 243.083 93.6381 243.591 94.0381 243.959C94.4461 244.319 94.9381 244.499 95.5141 244.499C95.9861 244.499 96.3781 244.391 96.6901 244.175C97.0101 243.951 97.2341 243.655 97.3621 243.287H98.5381C98.3621 243.919 98.0101 244.435 97.4821 244.835C96.9541 245.227 96.2981 245.423 95.5141 245.423C94.8901 245.423 94.3301 245.283 93.8341 245.003C93.3461 244.723 92.9621 244.327 92.6821 243.815C92.4021 243.295 92.2621 242.695 92.2621 242.015C92.2621 241.335 92.3981 240.739 92.6701 240.227C92.9421 239.715 93.3221 239.323 93.8101 239.051C94.3061 238.771 94.8741 238.631 95.5141 238.631C96.1381 238.631 96.6901 238.767 97.1701 239.039C97.6501 239.311 98.0181 239.687 98.2741 240.167C98.5381 240.639 98.6701 241.175 98.6701 241.775ZM97.5421 241.547C97.5421 241.131 97.4501 240.775 97.2661 240.479C97.0821 240.175 96.8301 239.947 96.5101 239.795C96.1981 239.635 95.8501 239.555 95.4661 239.555C94.9141 239.555 94.4421 239.731 94.0501 240.083C93.6661 240.435 93.4461 240.923 93.3901 241.547H97.5421ZM108.255 243.455H104.607L103.935 245.315H102.783L105.807 236.999H107.067L110.079 245.315H108.927L108.255 243.455ZM107.943 242.567L106.431 238.343L104.919 242.567H107.943ZM112.489 236.951V245.315H111.397V236.951H112.489ZM120.225 239.639H118.845V245.315H117.753V239.639H116.901V238.739H117.753V238.271C117.753 237.535 117.941 236.999 118.317 236.663C118.701 236.319 119.313 236.147 120.153 236.147V237.059C119.673 237.059 119.333 237.155 119.133 237.347C118.941 237.531 118.845 237.839 118.845 238.271V238.739H120.225V239.639ZM124.366 245.423C123.75 245.423 123.19 245.283 122.686 245.003C122.19 244.723 121.798 244.327 121.51 243.815C121.23 243.295 121.09 242.695 121.09 242.015C121.09 241.343 121.234 240.751 121.522 240.239C121.818 239.719 122.218 239.323 122.722 239.051C123.226 238.771 123.79 238.631 124.414 238.631C125.038 238.631 125.602 238.771 126.106 239.051C126.61 239.323 127.006 239.715 127.294 240.227C127.59 240.739 127.738 241.335 127.738 242.015C127.738 242.695 127.586 243.295 127.282 243.815C126.986 244.327 126.582 244.723 126.07 245.003C125.558 245.283 124.99 245.423 124.366 245.423ZM124.366 244.463C124.758 244.463 125.126 244.371 125.47 244.187C125.814 244.003 126.09 243.727 126.298 243.359C126.514 242.991 126.622 242.543 126.622 242.015C126.622 241.487 126.518 241.039 126.31 240.671C126.102 240.303 125.83 240.031 125.494 239.855C125.158 239.671 124.794 239.579 124.402 239.579C124.002 239.579 123.634 239.671 123.298 239.855C122.97 240.031 122.706 240.303 122.506 240.671C122.306 241.039 122.206 241.487 122.206 242.015C122.206 242.551 122.302 243.003 122.494 243.371C122.694 243.739 122.958 244.015 123.286 244.199C123.614 244.375 123.974 244.463 124.366 244.463ZM130.266 239.807C130.458 239.431 130.73 239.139 131.082 238.931C131.442 238.723 131.878 238.619 132.39 238.619V239.747H132.102C130.878 239.747 130.266 240.411 130.266 241.739V245.315H129.174V238.739H130.266V239.807ZM141.794 243.455H138.146L137.474 245.315H136.322L139.346 236.999H140.606L143.618 245.315H142.466L141.794 243.455ZM141.482 242.567L139.97 238.343L138.458 242.567H141.482ZM147.612 239.639H146.232V245.315H145.14V239.639H144.288V238.739H145.14V238.271C145.14 237.535 145.328 236.999 145.704 236.663C146.088 236.319 146.7 236.147 147.54 236.147V237.059C147.06 237.059 146.72 237.155 146.52 237.347C146.328 237.531 146.232 237.839 146.232 238.271V238.739H147.612V239.639ZM149.977 239.807C150.169 239.431 150.441 239.139 150.793 238.931C151.153 238.723 151.589 238.619 152.101 238.619V239.747H151.813C150.589 239.747 149.977 240.411 149.977 241.739V245.315H148.885V238.739H149.977V239.807ZM153.926 237.671C153.718 237.671 153.542 237.599 153.398 237.455C153.254 237.311 153.182 237.135 153.182 236.927C153.182 236.719 153.254 236.543 153.398 236.399C153.542 236.255 153.718 236.183 153.926 236.183C154.126 236.183 154.294 236.255 154.43 236.399C154.574 236.543 154.646 236.719 154.646 236.927C154.646 237.135 154.574 237.311 154.43 237.455C154.294 237.599 154.126 237.671 153.926 237.671ZM154.454 238.739V245.315H153.362V238.739H154.454ZM155.907 242.015C155.907 241.335 156.043 240.743 156.315 240.239C156.587 239.727 156.963 239.331 157.443 239.051C157.931 238.771 158.487 238.631 159.111 238.631C159.919 238.631 160.583 238.827 161.103 239.219C161.631 239.611 161.979 240.155 162.147 240.851H160.971C160.859 240.451 160.639 240.135 160.311 239.903C159.991 239.671 159.591 239.555 159.111 239.555C158.487 239.555 157.983 239.771 157.599 240.203C157.215 240.627 157.023 241.231 157.023 242.015C157.023 242.807 157.215 243.419 157.599 243.851C157.983 244.283 158.487 244.499 159.111 244.499C159.591 244.499 159.991 244.387 160.311 244.163C160.631 243.939 160.851 243.619 160.971 243.203H162.147C161.971 243.875 161.619 244.415 161.091 244.823C160.563 245.223 159.903 245.423 159.111 245.423C158.487 245.423 157.931 245.283 157.443 245.003C156.963 244.723 156.587 244.327 156.315 243.815C156.043 243.303 155.907 242.703 155.907 242.015ZM163.196 242.003C163.196 241.331 163.332 240.743 163.604 240.239C163.876 239.727 164.248 239.331 164.72 239.051C165.2 238.771 165.732 238.631 166.316 238.631C166.892 238.631 167.392 238.755 167.816 239.003C168.24 239.251 168.556 239.563 168.764 239.939V238.739H169.868V245.315H168.764V244.091C168.548 244.475 168.224 244.795 167.792 245.051C167.368 245.299 166.872 245.423 166.304 245.423C165.72 245.423 165.192 245.279 164.72 244.991C164.248 244.703 163.876 244.299 163.604 243.779C163.332 243.259 163.196 242.667 163.196 242.003ZM168.764 242.015C168.764 241.519 168.664 241.087 168.464 240.719C168.264 240.351 167.992 240.071 167.648 239.879C167.312 239.679 166.94 239.579 166.532 239.579C166.124 239.579 165.752 239.675 165.416 239.867C165.08 240.059 164.812 240.339 164.612 240.707C164.412 241.075 164.312 241.507 164.312 242.003C164.312 242.507 164.412 242.947 164.612 243.323C164.812 243.691 165.08 243.975 165.416 244.175C165.752 244.367 166.124 244.463 166.532 244.463C166.94 244.463 167.312 244.367 167.648 244.175C167.992 243.975 168.264 243.691 168.464 243.323C168.664 242.947 168.764 242.511 168.764 242.015Z"/>
<defs>
<radialGradient gradientTransform="translate(102 90.6574) rotate(82.9621) scale(123.317)" gradientUnits="userSpaceOnUse" r="1" cy="0" cx="0" id="paint0_radial_59655_37004">
<stop stop-color="white"/>
<stop stop-opacity="0" stop-color="#0061A4" offset="0.778444"/>
</radialGradient>
<radialGradient gradientTransform="translate(102 90.6574) rotate(82.9621) scale(123.317)" gradientUnits="userSpaceOnUse" r="1" cy="0" cx="0" id="paint1_radial_59655_37004">
<stop stop-color="white"/>
<stop stop-opacity="0" stop-color="#0061A4" offset="0.778444"/>
</radialGradient>
<radialGradient gradientTransform="translate(101.843 90.5) rotate(82.9621) scale(121.742)" gradientUnits="userSpaceOnUse" r="1" cy="0" cx="0" id="paint2_radial_59655_37004">
<stop stop-color="white"/>
<stop stop-opacity="0" stop-color="#0061A4" offset="0.778444"/>
</radialGradient>
<radialGradient gradientTransform="translate(101.843 90.5) rotate(82.9621) scale(117.662)" gradientUnits="userSpaceOnUse" r="1" cy="0" cx="0" id="paint3_radial_59655_37004">
<stop stop-color="white"/>
<stop stop-opacity="0" stop-color="#0061A4" offset="0.778444"/>
</radialGradient>
<radialGradient gradientTransform="translate(101.843 90.5) rotate(82.9621) scale(114.941)" gradientUnits="userSpaceOnUse" r="1" cy="0" cx="0" id="paint4_radial_59655_37004">
<stop stop-color="white"/>
<stop stop-opacity="0" stop-color="#0061A4" offset="0.778444"/>
</radialGradient>
<radialGradient gradientTransform="translate(101.843 90.5) rotate(82.9621) scale(114.941)" gradientUnits="userSpaceOnUse" r="1" cy="0" cx="0" id="paint5_radial_59655_37004">
<stop stop-color="white"/>
<stop stop-opacity="0" stop-color="#0061A4" offset="0.778444"/>
</radialGradient>
<radialGradient gradientTransform="translate(101.843 90.5) rotate(82.9621) scale(110.86)" gradientUnits="userSpaceOnUse" r="1" cy="0" cx="0" id="paint6_radial_59655_37004">
<stop stop-color="white"/>
<stop stop-opacity="0" stop-color="#0061A4" offset="0.778444"/>
</radialGradient>
<radialGradient gradientTransform="translate(101.843 90.5) rotate(82.9621) scale(106.78)" gradientUnits="userSpaceOnUse" r="1" cy="0" cx="0" id="paint7_radial_59655_37004">
<stop stop-color="white"/>
<stop stop-opacity="0" stop-color="#0061A4" offset="0.778444"/>
</radialGradient>
<radialGradient gradientTransform="translate(101.843 90.5) rotate(82.9621) scale(106.78)" gradientUnits="userSpaceOnUse" r="1" cy="0" cx="0" id="paint8_radial_59655_37004">
<stop stop-color="white"/>
<stop stop-opacity="0" stop-color="#0061A4" offset="0.778444"/>
</radialGradient>
<radialGradient gradientTransform="translate(102.343 90) rotate(82.9621) scale(103.379)" gradientUnits="userSpaceOnUse" r="1" cy="0" cx="0" id="paint9_radial_59655_37004">
<stop stop-color="white"/>
<stop stop-opacity="0" stop-color="#0061A4" offset="0.778444"/>
</radialGradient>
<radialGradient gradientTransform="translate(102.343 90) rotate(82.9621) scale(103.379)" gradientUnits="userSpaceOnUse" r="1" cy="0" cx="0" id="paint10_radial_59655_37004">
<stop stop-color="white"/>
<stop stop-opacity="0" stop-color="#0061A4" offset="0.778444"/>
</radialGradient>
<radialGradient gradientTransform="translate(102.343 90) rotate(82.9621) scale(103.379)" gradientUnits="userSpaceOnUse" r="1" cy="0" cx="0" id="paint11_radial_59655_37004">
<stop stop-color="white"/>
<stop stop-opacity="0" stop-color="#0061A4" offset="0.778444"/>
</radialGradient>
<radialGradient gradientTransform="translate(102.343 90) rotate(82.9621) scale(103.379)" gradientUnits="userSpaceOnUse" r="1" cy="0" cx="0" id="paint12_radial_59655_37004">
<stop stop-color="white"/>
<stop stop-opacity="0" stop-color="#0061A4" offset="0.778444"/>
</radialGradient>
<radialGradient gradientTransform="translate(102.343 90) rotate(82.9621) scale(103.379)" gradientUnits="userSpaceOnUse" r="1" cy="0" cx="0" id="paint13_radial_59655_37004">
<stop stop-color="white"/>
<stop stop-opacity="0" stop-color="#0061A4" offset="0.778444"/>
</radialGradient>
<radialGradient gradientTransform="translate(102.343 90) rotate(82.9621) scale(103.379)" gradientUnits="userSpaceOnUse" r="1" cy="0" cx="0" id="paint14_radial_59655_37004">
<stop stop-color="white"/>
<stop stop-opacity="0" stop-color="#0061A4" offset="0.778444"/>
</radialGradient>
<radialGradient gradientTransform="translate(102.343 90) rotate(82.9621) scale(103.379)" gradientUnits="userSpaceOnUse" r="1" cy="0" cx="0" id="paint15_radial_59655_37004">
<stop stop-color="white"/>
<stop stop-opacity="0" stop-color="#0061A4" offset="0.778444"/>
</radialGradient>
<radialGradient gradientTransform="translate(102.343 90) rotate(82.9621) scale(103.379)" gradientUnits="userSpaceOnUse" r="1" cy="0" cx="0" id="paint16_radial_59655_37004">
<stop stop-color="white"/>
<stop stop-opacity="0" stop-color="#0061A4" offset="0.778444"/>
</radialGradient>
<radialGradient gradientTransform="translate(102.343 90) rotate(82.9621) scale(103.379)" gradientUnits="userSpaceOnUse" r="1" cy="0" cx="0" id="paint17_radial_59655_37004">
<stop stop-color="white"/>
<stop stop-opacity="0" stop-color="#0061A4" offset="0.778444"/>
</radialGradient>
<radialGradient gradientTransform="translate(102.343 90) rotate(82.9621) scale(103.379)" gradientUnits="userSpaceOnUse" r="1" cy="0" cx="0" id="paint18_radial_59655_37004">
<stop stop-color="white"/>
<stop stop-opacity="0" stop-color="#0061A4" offset="0.778444"/>
</radialGradient>
<radialGradient gradientTransform="translate(102.343 90) rotate(82.9621) scale(103.379)" gradientUnits="userSpaceOnUse" r="1" cy="0" cx="0" id="paint19_radial_59655_37004">
<stop stop-color="white"/>
<stop stop-opacity="0" stop-color="#0061A4" offset="0.778444"/>
</radialGradient>
<radialGradient gradientTransform="translate(102.343 90) rotate(82.9621) scale(103.379)" gradientUnits="userSpaceOnUse" r="1" cy="0" cx="0" id="paint20_radial_59655_37004">
<stop stop-color="white"/>
<stop stop-opacity="0" stop-color="#0061A4" offset="0.778444"/>
</radialGradient>
<radialGradient gradientTransform="translate(102.343 90) rotate(82.9621) scale(103.379)" gradientUnits="userSpaceOnUse" r="1" cy="0" cx="0" id="paint21_radial_59655_37004">
<stop stop-color="white"/>
<stop stop-opacity="0" stop-color="#0061A4" offset="0.778444"/>
</radialGradient>
<radialGradient gradientTransform="translate(102.343 90) rotate(82.9621) scale(103.379)" gradientUnits="userSpaceOnUse" r="1" cy="0" cx="0" id="paint22_radial_59655_37004">
<stop stop-color="white"/>
<stop stop-opacity="0" stop-color="#0061A4" offset="0.778444"/>
</radialGradient>
<radialGradient gradientTransform="translate(102.343 90) rotate(82.9621) scale(103.379)" gradientUnits="userSpaceOnUse" r="1" cy="0" cx="0" id="paint23_radial_59655_37004">
<stop stop-color="white"/>
<stop stop-opacity="0" stop-color="#0061A4" offset="0.778444"/>
</radialGradient>
<radialGradient gradientTransform="translate(102.343 90) rotate(82.9621) scale(103.379)" gradientUnits="userSpaceOnUse" r="1" cy="0" cx="0" id="paint24_radial_59655_37004">
<stop stop-color="white"/>
<stop stop-opacity="0" stop-color="#0061A4" offset="0.778444"/>
</radialGradient>
<radialGradient gradientTransform="translate(102.343 90) rotate(82.9621) scale(103.379)" gradientUnits="userSpaceOnUse" r="1" cy="0" cx="0" id="paint25_radial_59655_37004">
<stop stop-color="white"/>
<stop stop-opacity="0" stop-color="#0061A4" offset="0.778444"/>
</radialGradient>
<radialGradient gradientTransform="translate(102.343 90) rotate(82.9621) scale(103.379)" gradientUnits="userSpaceOnUse" r="1" cy="0" cx="0" id="paint26_radial_59655_37004">
<stop stop-color="white"/>
<stop stop-opacity="0" stop-color="#0061A4" offset="0.778444"/>
</radialGradient>
<radialGradient gradientTransform="translate(102.343 90) rotate(82.9621) scale(103.379)" gradientUnits="userSpaceOnUse" r="1" cy="0" cx="0" id="paint27_radial_59655_37004">
<stop stop-color="white"/>
<stop stop-opacity="0" stop-color="#0061A4" offset="0.778444"/>
</radialGradient>
<radialGradient gradientTransform="translate(102.343 90) rotate(82.9621) scale(103.379)" gradientUnits="userSpaceOnUse" r="1" cy="0" cx="0" id="paint28_radial_59655_37004">
<stop stop-color="white"/>
<stop stop-opacity="0" stop-color="#0061A4" offset="0.778444"/>
</radialGradient>
<radialGradient gradientTransform="translate(102.343 90) rotate(82.9621) scale(103.379)" gradientUnits="userSpaceOnUse" r="1" cy="0" cx="0" id="paint29_radial_59655_37004">
<stop stop-color="white"/>
<stop stop-opacity="0" stop-color="#0061A4" offset="0.778444"/>
</radialGradient>
<radialGradient gradientTransform="translate(102.343 90) rotate(82.9621) scale(103.379)" gradientUnits="userSpaceOnUse" r="1" cy="0" cx="0" id="paint30_radial_59655_37004">
<stop stop-color="white"/>
<stop stop-opacity="0" stop-color="#0061A4" offset="0.778444"/>
</radialGradient>
<radialGradient gradientTransform="translate(102.343 90) rotate(82.9621) scale(103.379)" gradientUnits="userSpaceOnUse" r="1" cy="0" cx="0" id="paint31_radial_59655_37004">
<stop stop-color="white"/>
<stop stop-opacity="0" stop-color="#0061A4" offset="0.778444"/>
</radialGradient>
<radialGradient gradientTransform="translate(102.343 90) rotate(82.9621) scale(103.379)" gradientUnits="userSpaceOnUse" r="1" cy="0" cx="0" id="paint32_radial_59655_37004">
<stop stop-color="white"/>
<stop stop-opacity="0.260274" stop-color="#E0E3E5" offset="0.49"/>
<stop stop-opacity="0.135559" stop-color="#75A5C6" offset="0.605"/>
<stop stop-opacity="0" stop-color="#0061A4" offset="0.73"/>
</radialGradient>
<radialGradient gradientTransform="translate(101.843 90.8147) rotate(82.9621) scale(97.2578)" gradientUnits="userSpaceOnUse" r="1" cy="0" cx="0" id="paint33_radial_59655_37004">
<stop stop-opacity="0.24" stop-color="#0061A4"/>
<stop stop-opacity="0" stop-color="#0061A4" offset="0.778444"/>
</radialGradient>
<linearGradient gradientUnits="userSpaceOnUse" y2="143.043" x2="102.34" y1="42.9872" x1="102.34" id="paint34_linear_59655_37004">
<stop stop-color="#0078C8"/>
<stop stop-color="#00538C" offset="0.515"/>
</linearGradient>
<linearGradient gradientUnits="userSpaceOnUse" y2="143.043" x2="102.34" y1="42.9872" x1="102.34" id="paint35_linear_59655_37004">
<stop stop-color="#0078C8"/>
<stop stop-color="#00538C" offset="0.515"/>
</linearGradient>
</defs>
</svg>